<svg width="28" height="28" viewBox="0 0 28 28" fill="none" xmlns="http://www.w3.org/2000/svg">
<mask id="path-1-inside-1_117_346" fill="white">
<path d="M23.3333 14V8.16669H25.6666V15.1667H23.3333M23.3333 19.8334H25.6666V17.5H23.3333M11.6666 15.1667C14.7816 15.1667 21 16.73 21 19.8334V23.3334H2.33331V19.8334C2.33331 16.73 8.55165 15.1667 11.6666 15.1667ZM11.6666 4.66669C12.9043 4.66669 14.0913 5.15835 14.9665 6.03352C15.8416 6.90869 16.3333 8.09568 16.3333 9.33335C16.3333 10.571 15.8416 11.758 14.9665 12.6332C14.0913 13.5084 12.9043 14 11.6666 14C10.429 14 9.24198 13.5084 8.36681 12.6332C7.49164 11.758 6.99998 10.571 6.99998 9.33335C6.99998 8.09568 7.49164 6.90869 8.36681 6.03352C9.24198 5.15835 10.429 4.66669 11.6666 4.66669ZM11.6666 17.3834C8.20165 17.3834 4.54998 19.0867 4.54998 19.8334V21.1167H18.7833V19.8334C18.7833 19.0867 15.1316 17.3834 11.6666 17.3834ZM11.6666 6.88335C11.0169 6.88335 10.3937 7.14148 9.93423 7.60094C9.47477 8.06041 9.21665 8.68357 9.21665 9.33335C9.21665 9.98313 9.47477 10.6063 9.93423 11.0658C10.3937 11.5252 11.0169 11.7834 11.6666 11.7834C12.3164 11.7834 12.9396 11.5252 13.3991 11.0658C13.8585 10.6063 14.1166 9.98313 14.1166 9.33335C14.1166 8.68357 13.8585 8.06041 13.3991 7.60094C12.9396 7.14148 12.3164 6.88335 11.6666 6.88335Z"/>
</mask>
<path d="M23.3333 14V8.16669H25.6666V15.1667H23.3333M23.3333 19.8334H25.6666V17.5H23.3333M11.6666 15.1667C14.7816 15.1667 21 16.73 21 19.8334V23.3334H2.33331V19.8334C2.33331 16.73 8.55165 15.1667 11.6666 15.1667ZM11.6666 4.66669C12.9043 4.66669 14.0913 5.15835 14.9665 6.03352C15.8416 6.90869 16.3333 8.09568 16.3333 9.33335C16.3333 10.571 15.8416 11.758 14.9665 12.6332C14.0913 13.5084 12.9043 14 11.6666 14C10.429 14 9.24198 13.5084 8.36681 12.6332C7.49164 11.758 6.99998 10.571 6.99998 9.33335C6.99998 8.09568 7.49164 6.90869 8.36681 6.03352C9.24198 5.15835 10.429 4.66669 11.6666 4.66669ZM11.6666 17.3834C8.20165 17.3834 4.54998 19.0867 4.54998 19.8334V21.1167H18.7833V19.8334C18.7833 19.0867 15.1316 17.3834 11.6666 17.3834ZM11.6666 6.88335C11.0169 6.88335 10.3937 7.14148 9.93423 7.60094C9.47477 8.06041 9.21665 8.68357 9.21665 9.33335C9.21665 9.98313 9.47477 10.6063 9.93423 11.0658C10.3937 11.5252 11.0169 11.7834 11.6666 11.7834C12.3164 11.7834 12.9396 11.5252 13.3991 11.0658C13.8585 10.6063 14.1166 9.98313 14.1166 9.33335C14.1166 8.68357 13.8585 8.06041 13.3991 7.60094C12.9396 7.14148 12.3164 6.88335 11.6666 6.88335Z" fill="black"/>
<path d="M23.3333 8.16669V7.16669H22.3333V8.16669H23.3333ZM25.6666 8.16669H26.6666V7.16669H25.6666V8.16669ZM25.6666 15.1667V16.1667H26.6666V15.1667H25.6666ZM25.6666 19.8334V20.8334H26.6666V19.8334H25.6666ZM25.6666 17.5H26.6666V16.5H25.6666V17.5ZM21 23.3334V24.3334H22V23.3334H21ZM2.33331 23.3334H1.33331V24.3334H2.33331V23.3334ZM11.6666 4.66669V3.66669V4.66669ZM16.3333 9.33335H17.3333H16.3333ZM11.6666 14V15V14ZM6.99998 9.33335H5.99998H6.99998ZM4.54998 21.1167H3.54998V22.1167H4.54998V21.1167ZM18.7833 21.1167V22.1167H19.7833V21.1167H18.7833ZM9.21665 9.33335H10.2166H9.21665ZM14.1166 9.33335H15.1166H14.1166ZM23.3333 14H24.3333V8.16669H23.3333H22.3333V14H23.3333ZM23.3333 8.16669V9.16669H25.6666V8.16669V7.16669H23.3333V8.16669ZM25.6666 8.16669H24.6666V15.1667H25.6666H26.6666V8.16669H25.6666ZM25.6666 15.1667V14.1667H23.3333V15.1667V16.1667H25.6666V15.1667ZM23.3333 19.8334V20.8334H25.6666V19.8334V18.8334H23.3333V19.8334ZM25.6666 19.8334H26.6666V17.5H25.6666H24.6666V19.8334H25.6666ZM25.6666 17.5V16.5H23.3333V17.5V18.5H25.6666V17.5ZM11.6666 15.1667V16.1667C13.0991 16.1667 15.3061 16.5341 17.1296 17.2646C18.0405 17.6295 18.7929 18.0604 19.3015 18.5298C19.8033 18.9929 20 19.4248 20 19.8334H21H22C22 18.6902 21.4194 17.7629 20.6579 17.0601C19.9032 16.3636 18.9063 15.8218 17.8733 15.408C15.8089 14.581 13.3492 14.1667 11.6666 14.1667V15.1667ZM21 19.8334H20V23.3334H21H22V19.8334H21ZM21 23.3334V22.3334H2.33331V23.3334V24.3334H21V23.3334ZM2.33331 23.3334H3.33331V19.8334H2.33331H1.33331V23.3334H2.33331ZM2.33331 19.8334H3.33331C3.33331 19.4248 3.53003 18.9929 4.03183 18.5298C4.54041 18.0604 5.29278 17.6295 6.20373 17.2646C8.02723 16.5341 10.2342 16.1667 11.6666 16.1667V15.1667V14.1667C9.98414 14.1667 7.52439 14.581 5.45998 15.408C4.42697 15.8218 3.43007 16.3636 2.67537 17.0601C1.91389 17.7629 1.33331 18.6902 1.33331 19.8334H2.33331ZM11.6666 4.66669V5.66669C12.6391 5.66669 13.5717 6.053 14.2594 6.74063L14.9665 6.03352L15.6736 5.32641C14.6109 4.26371 13.1695 3.66669 11.6666 3.66669V4.66669ZM14.9665 6.03352L14.2594 6.74063C14.947 7.42826 15.3333 8.36089 15.3333 9.33335H16.3333H17.3333C17.3333 7.83046 16.7363 6.38912 15.6736 5.32641L14.9665 6.03352ZM16.3333 9.33335H15.3333C15.3333 10.3058 14.947 11.2384 14.2594 11.9261L14.9665 12.6332L15.6736 13.3403C16.7363 12.2776 17.3333 10.8362 17.3333 9.33335H16.3333ZM14.9665 12.6332L14.2594 11.9261C13.5717 12.6137 12.6391 13 11.6666 13V14V15C13.1695 15 14.6109 14.403 15.6736 13.3403L14.9665 12.6332ZM11.6666 14V13C10.6942 13 9.76155 12.6137 9.07392 11.9261L8.36681 12.6332L7.65971 13.3403C8.72241 14.403 10.1638 15 11.6666 15V14ZM8.36681 12.6332L9.07392 11.9261C8.38629 11.2384 7.99998 10.3058 7.99998 9.33335H6.99998H5.99998C5.99998 10.8362 6.597 12.2776 7.65971 13.3403L8.36681 12.6332ZM6.99998 9.33335H7.99998C7.99998 8.36089 8.38629 7.42826 9.07392 6.74063L8.36681 6.03352L7.65971 5.32641C6.597 6.38912 5.99998 7.83046 5.99998 9.33335H6.99998ZM8.36681 6.03352L9.07392 6.74063C9.76155 6.053 10.6942 5.66669 11.6666 5.66669V4.66669V3.66669C10.1638 3.66669 8.72241 4.26371 7.65971 5.32641L8.36681 6.03352ZM11.6666 17.3834V16.3834C9.78588 16.3834 7.88379 16.842 6.44908 17.3953C5.73199 17.6719 5.09574 17.9859 4.61946 18.3038C4.38426 18.4609 4.15436 18.641 3.97157 18.8434C3.81777 19.0137 3.54998 19.3591 3.54998 19.8334H4.54998H5.54998C5.54998 20.121 5.3963 20.2498 5.45574 20.184C5.48619 20.1503 5.56864 20.0749 5.72992 19.9672C6.04662 19.7558 6.53985 19.5039 7.1688 19.2614C8.42617 18.7764 10.0824 18.3834 11.6666 18.3834V17.3834ZM4.54998 19.8334H3.54998V21.1167H4.54998H5.54998V19.8334H4.54998ZM4.54998 21.1167V22.1167H18.7833V21.1167V20.1167H4.54998V21.1167ZM18.7833 21.1167H19.7833V19.8334H18.7833H17.7833V21.1167H18.7833ZM18.7833 19.8334H19.7833C19.7833 19.3591 19.5155 19.0137 19.3617 18.8434C19.1789 18.641 18.949 18.4609 18.7138 18.3038C18.2376 17.9859 17.6013 17.6719 16.8842 17.3953C15.4495 16.842 13.5474 16.3834 11.6666 16.3834V17.3834V18.3834C13.2509 18.3834 14.9071 18.7764 16.1645 19.2614C16.7934 19.5039 17.2867 19.7558 17.6034 19.9672C17.7646 20.0749 17.8471 20.1503 17.8776 20.184C17.937 20.2498 17.7833 20.121 17.7833 19.8334H18.7833ZM11.6666 6.88335V5.88335C10.7516 5.88335 9.87413 6.24683 9.22713 6.89384L9.93423 7.60094L10.6413 8.30805C10.9133 8.03612 11.2821 7.88335 11.6666 7.88335V6.88335ZM9.93423 7.60094L9.22713 6.89384C8.58013 7.54084 8.21665 8.41836 8.21665 9.33335H9.21665H10.2166C10.2166 8.94879 10.3694 8.57998 10.6413 8.30805L9.93423 7.60094ZM9.21665 9.33335H8.21665C8.21665 10.2484 8.58013 11.1259 9.22713 11.7729L9.93423 11.0658L10.6413 10.3587C10.3694 10.0867 10.2166 9.71792 10.2166 9.33335H9.21665ZM9.93423 11.0658L9.22713 11.7729C9.87413 12.4199 10.7516 12.7834 11.6666 12.7834V11.7834V10.7834C11.2821 10.7834 10.9133 10.6306 10.6413 10.3587L9.93423 11.0658ZM11.6666 11.7834V12.7834C12.5816 12.7834 13.4592 12.4199 14.1062 11.7729L13.3991 11.0658L12.692 10.3587C12.42 10.6306 12.0512 10.7834 11.6666 10.7834V11.7834ZM13.3991 11.0658L14.1062 11.7729C14.7532 11.1259 15.1166 10.2484 15.1166 9.33335H14.1166H13.1166C13.1166 9.71792 12.9639 10.0867 12.692 10.3587L13.3991 11.0658ZM14.1166 9.33335H15.1166C15.1166 8.41836 14.7532 7.54083 14.1062 6.89384L13.3991 7.60094L12.692 8.30805C12.9639 8.57998 13.1166 8.94879 13.1166 9.33335H14.1166ZM13.3991 7.60094L14.1062 6.89384C13.4592 6.24683 12.5816 5.88335 11.6666 5.88335V6.88335V7.88335C12.0512 7.88335 12.42 8.03612 12.692 8.30805L13.3991 7.60094Z" fill="black" mask="url(#path-1-inside-1_117_346)"/>
</svg>
